<svg width="80" height="80" viewBox="0 0 80 80" fill="none" xmlns="http://www.w3.org/2000/svg">
<path fill-rule="evenodd" clip-rule="evenodd" d="M52.746 0H27.254C18.7323 0 14.8617 0.0199313 10.7013 1.32695C6.35152 2.92411 2.92411 6.35151 1.32695 10.7013C0.0199321 14.8617 0 18.733 0 27.254V52.746C0 61.2676 0.0199209 65.1376 1.32696 69.2987C2.92416 73.6486 6.35162 77.0759 10.7013 78.6724C14.8616 79.9801 18.7321 80 27.254 80H52.746C61.2678 80 65.1377 79.9801 69.2987 78.6723C73.6484 77.0759 77.0758 73.6486 78.673 69.2988C79.9801 65.1377 80 61.2676 80 52.746V27.254C80 18.7329 79.9801 14.8616 78.673 10.7012C77.0758 6.35148 73.6485 2.92412 69.2987 1.32696C65.1376 0.0199209 61.2676 0 52.746 0Z" fill="url(#paint0_linear_2839_8839)"/>
<path d="M14.4004 42.4955V32.3296C23.8594 32.3296 31.5385 24.6289 31.5385 15.2001H41.7096C41.7096 30.2456 29.4535 42.4955 14.4004 42.4955Z" fill="url(#paint1_linear_2839_8839)"/>
<path d="M41.7027 65.6001L31.5368 65.6001C31.5368 56.1411 23.8361 48.4619 14.4072 48.4619L14.4072 38.2909C29.4528 38.2909 41.7027 50.547 41.7027 65.6001Z" fill="url(#paint2_linear_2839_8839)"/>
<path d="M64.8008 38.2977L64.8008 48.4636C55.3417 48.4636 47.6626 56.1643 47.6626 65.5931L37.4916 65.5931C37.4916 50.5476 49.7477 38.2977 64.8008 38.2977Z" fill="url(#paint3_linear_2839_8839)"/>
<path d="M37.4985 15.2001L47.6644 15.2001C47.6644 24.6591 55.3651 32.3382 64.7939 32.3382L64.7939 42.5092C49.7484 42.5092 37.4985 30.2532 37.4985 15.2001Z" fill="url(#paint4_linear_2839_8839)"/>
<defs>
<linearGradient id="paint0_linear_2839_8839" x1="9.2" y1="80" x2="70.8" y2="2.4" gradientUnits="userSpaceOnUse">
<stop stop-color="#D6D1D1"/>
<stop offset="1" stop-color="#E8E2E2"/>
</linearGradient>
<linearGradient id="paint1_linear_2839_8839" x1="14.4004" y1="48.276" x2="22.3508" y2="11.8917" gradientUnits="userSpaceOnUse">
<stop stop-color="#11181C"/>
<stop offset="0.496041" stop-color="#886349"/>
</linearGradient>
<linearGradient id="paint2_linear_2839_8839" x1="47.4831" y1="65.6001" x2="11.0989" y2="57.6497" gradientUnits="userSpaceOnUse">
<stop stop-color="#11181C"/>
<stop offset="0.496041" stop-color="#886349"/>
</linearGradient>
<linearGradient id="paint3_linear_2839_8839" x1="64.8008" y1="32.5173" x2="56.8503" y2="68.9015" gradientUnits="userSpaceOnUse">
<stop stop-color="#11181C"/>
<stop offset="0.496041" stop-color="#886349"/>
</linearGradient>
<linearGradient id="paint4_linear_2839_8839" x1="31.7181" y1="15.2001" x2="68.1023" y2="23.1505" gradientUnits="userSpaceOnUse">
<stop stop-color="#11181C"/>
<stop offset="0.496041" stop-color="#886349"/>
</linearGradient>
</defs>
</svg>
